<svg xmlns="http://www.w3.org/2000/svg" xmlns:xlink="http://www.w3.org/1999/xlink" width="500" zoomAndPan="magnify" viewBox="0 0 375 374.999991" height="500" preserveAspectRatio="xMidYMid meet" version="1.0"><defs><g/><clipPath id="dc0f73b5ce"><rect x="0" width="372" y="0" height="334"/></clipPath></defs><g transform="matrix(1, 0, 0, 1, 0, 34)"><g clip-path="url(#dc0f73b5ce)"><g fill="#000000" fill-opacity="1"><g transform="translate(-3.516696, 240.088869)"><g><path d="M 15.96875 -219.53125 L 79.5625 -219.53125 C 110.070312 -219.53125 136.144531 -209.109375 157.78125 -188.265625 C 179.425781 -167.421875 190.25 -141.296875 190.25 -109.890625 C 190.25 -78.316406 179.472656 -52.109375 157.921875 -31.265625 C 136.367188 -10.421875 110.25 0 79.5625 0 L 15.96875 0 Z M 65.984375 -44.703125 L 73.703125 -44.703125 C 91.972656 -44.703125 106.914062 -50.863281 118.53125 -63.1875 C 130.15625 -75.519531 136.054688 -91 136.234375 -109.625 C 136.234375 -128.257812 130.421875 -143.785156 118.796875 -156.203125 C 107.179688 -168.617188 92.148438 -174.828125 73.703125 -174.828125 L 65.984375 -174.828125 Z M 65.984375 -44.703125 "/></g></g></g><g fill="#000000" fill-opacity="1"><g transform="translate(167.84032, 240.088869)"><g><path d="M 142.890625 -219.53125 L 142.890625 -175.625 L 65.984375 -175.625 L 65.984375 -131.984375 L 137.03125 -131.984375 L 137.03125 -88.078125 L 65.984375 -88.078125 L 65.984375 0 L 15.96875 0 L 15.96875 -219.53125 Z M 142.890625 -219.53125 "/></g></g></g><g fill="#760f0f" fill-opacity="1"><g transform="translate(293.697331, 240.088869)"><g><path d="M 46.296875 -56.9375 C 54.816406 -56.9375 62.046875 -53.960938 67.984375 -48.015625 C 73.929688 -42.078125 76.90625 -34.851562 76.90625 -26.34375 C 76.90625 -18.007812 73.929688 -10.867188 67.984375 -4.921875 C 62.046875 1.015625 54.816406 3.984375 46.296875 3.984375 C 37.960938 3.984375 30.820312 1.015625 24.875 -4.921875 C 18.9375 -10.867188 15.96875 -18.007812 15.96875 -26.34375 C 15.96875 -34.851562 18.9375 -42.078125 24.875 -48.015625 C 30.820312 -53.960938 37.960938 -56.9375 46.296875 -56.9375 Z M 46.296875 -56.9375 "/></g></g></g></g></g></svg>